<svg width="16" height="15" viewBox="0 0 16 15" fill="none" xmlns="http://www.w3.org/2000/svg">
<g clip-path="url(#clip0_850_7346)">
<path d="M10.6934 1.82834C10.8586 1.66828 11.0547 1.54132 11.2706 1.45469C11.4864 1.36807 11.7178 1.32349 11.9514 1.32349C12.1851 1.32349 12.4164 1.36807 12.6323 1.45469C12.8481 1.54132 13.0443 1.66828 13.2095 1.82834C13.3747 1.9884 13.5057 2.17842 13.5951 2.38755C13.6845 2.59668 13.7306 2.82082 13.7306 3.04718C13.7306 3.27353 13.6845 3.49767 13.5951 3.7068C13.5057 3.91593 13.3747 4.10595 13.2095 4.26601L4.71767 12.4931L1.25806 13.4072L2.20159 10.0555L10.6934 1.82834Z" stroke="black" style="stroke:black;stroke-opacity:1;" stroke-width="1.5" stroke-linecap="round" stroke-linejoin="round"/>
</g>
<defs>
<clipPath id="clip0_850_7346">
<rect width="15.0965" height="14.626" fill="white" style="fill:white;fill-opacity:1;"/>
</clipPath>
</defs>
</svg>
