<svg width="192" height="226" viewBox="0 0 192 226" fill="none" xmlns="http://www.w3.org/2000/svg">
<g filter="url(#filter0_d_302_1041)">
<path d="M90.9503 11.0081C118.865 11.0081 141.263 34.5359 141.263 60.4564C141.263 77.7633 131.277 91.7589 116.331 99.1507C116.907 100.075 117.463 101.027 117.998 102.006C123.904 96.955 131.668 91.6479 140.407 86.5257C162.505 73.5744 169.849 73.9667 174.489 82.1693C179.13 90.3722 175.544 96.6241 153.446 109.576C143.334 115.502 133.74 120.283 125.863 122.941C127.297 128.64 128.312 134.45 128.946 139.991C130.564 150.62 130.813 164.228 130.522 176.465C129.935 201.132 125.761 207.035 115.151 206.857C104.648 206.68 100.213 200.754 100.693 176.714C98.0731 176.906 95.3769 176.981 92.6495 176.981C90.0311 176.981 87.4375 176.892 84.9113 176.676C85.4887 200.747 85.8292 206.65 75.3214 206.827C64.7106 207.005 55.6661 201.133 55.0792 176.466C54.7431 162.336 54.6185 146.49 56.5665 135.496C57.0924 131.237 57.8881 126.828 58.964 122.459C55.6574 123.208 52.1977 123.91 48.629 124.556C23.5383 129.097 16.8571 126.651 15.2579 117.321C13.6588 107.99 19.0449 102.879 44.1359 98.3382C49.8517 97.3038 55.3577 96.5286 60.4718 96.058C48.7833 88.189 41.4124 75.5894 41.4122 60.4574C42.186 41.5056 60.9471 10.4224 90.9503 11.0081Z" fill="#D38D3B" style="fill:#D38D3B;fill:color(display-p3 0.8269 0.5539 0.2306);fill-opacity:1;"/>
</g>
<path d="M106.717 47.6055C106.717 49.5991 105.734 51.2153 104.52 51.2153C103.307 51.2153 102.324 49.5991 102.324 47.6055C102.324 45.6119 103.307 43.9958 104.52 43.9958C105.734 43.9958 106.717 45.6119 106.717 47.6055Z" fill="black" style="fill:black;fill-opacity:1;"/>
<path d="M82.3094 47.6055C82.3094 49.5991 81.3259 51.2153 80.1126 51.2153C78.8994 51.2153 77.9159 49.5991 77.9159 47.6055C77.9159 45.6119 78.8994 43.9958 80.1126 43.9958C81.3259 43.9958 82.3094 45.6119 82.3094 47.6055Z" fill="black" style="fill:black;fill-opacity:1;"/>
<path d="M75.2996 59.4234C78.8751 65.8009 88.4192 65.7925 92.8288 60.6581" stroke="black" style="stroke:black;stroke-opacity:1;" stroke-width="4" stroke-linecap="round"/>
<path d="M92.8048 60.6266C97.0894 66.4909 106.412 65.053 109.986 59.3974" stroke="black" style="stroke:black;stroke-opacity:1;" stroke-width="4" stroke-linecap="round"/>
<ellipse cx="62.2946" cy="62.2852" rx="10.2515" ry="10.1073" fill="#DF6467" style="fill:#DF6467;fill:color(display-p3 0.8745 0.3922 0.4039);fill-opacity:1;"/>
<ellipse cx="122.827" cy="62.2852" rx="10.2515" ry="10.1073" fill="#DF6467" style="fill:#DF6467;fill:color(display-p3 0.8745 0.3922 0.4039);fill-opacity:1;"/>
<path d="M141.533 60.3453C141.533 46.8959 136.092 31.6651 126.841 22.0493C117.589 12.4334 105.002 9.18381 91.7733 8.88323C78.5446 8.58264 65.7258 11.255 56.061 20.441C46.3961 29.627 36.9492 46.9093 36.3579 60.3453H40.2726C40.7964 48.4426 51.4454 32.8683 60.0072 24.7305C68.5691 16.5928 80.0542 13.2485 91.7733 13.5148C103.492 13.7811 114.514 17.6368 122.71 26.1553C130.905 34.6738 138.14 48.4307 138.14 60.3453H141.533Z" fill="#797268" style="fill:#797268;fill:color(display-p3 0.4760 0.4477 0.4073);fill-opacity:1;"/>
<path d="M45.725 58.0295C45.725 71.3877 50.3579 82.2167 40.3628 82.2167C30.3676 82.2167 22.265 71.3877 22.265 58.0295C22.265 44.6713 30.3676 33.8423 40.3628 33.8423C50.3579 33.8423 45.725 44.6713 45.725 58.0295Z" fill="#F5EDF4" style="fill:#F5EDF4;fill:color(display-p3 0.9615 0.9292 0.9583);fill-opacity:1;"/>
<path d="M134.515 58.0295C134.515 71.3877 129.882 82.2167 139.877 82.2167C149.872 82.2167 157.975 71.3877 157.975 58.0295C157.975 44.6713 149.872 33.8423 139.877 33.8423C129.882 33.8423 134.515 44.6713 134.515 58.0295Z" fill="#F5EDF4" style="fill:#F5EDF4;fill:color(display-p3 0.9615 0.9292 0.9583);fill-opacity:1;"/>
<path d="M79.9425 164.566C75.0485 165.673 70.0337 163.006 68.498 158.225C62.1815 138.56 61.8614 123.166 66.6535 100.848C67.5229 96.7989 70.9964 93.8563 75.1274 93.5259C81.1094 93.0475 86.0565 98.1086 85.6357 104.093C84.348 122.406 84.8966 136.303 87.7103 152.682C88.6388 158.087 85.2886 163.357 79.9425 164.566Z" fill="#499E2E" style="fill:#499E2E;fill:color(display-p3 0.2871 0.6202 0.1819);fill-opacity:1;"/>
<path d="M72.088 93.769L80.2184 93.1188C83.5527 92.8522 86.3159 95.628 86.038 98.9149C84.2661 119.868 84.6374 134.795 87.7106 152.684C88.639 158.088 85.2886 163.357 79.9425 164.566C75.0485 165.673 70.0342 163.007 68.4984 158.226C61.9003 137.686 61.8446 121.804 67.3238 97.8254C67.8341 95.5919 69.7735 93.9541 72.088 93.769Z" fill="#499E2E" style="fill:#499E2E;fill:color(display-p3 0.2871 0.6202 0.1819);fill-opacity:1;"/>
<path d="M70.772 165.023L88.7478 160.155C89.4463 162.887 88.5668 164.073 88.6159 166.24C88.6478 167.646 88.1305 169.102 86.8646 169.712C82.8482 171.645 80.9732 171.565 75.9899 170.669C75.0376 170.497 74.2569 169.849 73.7186 169.045C72.6535 167.453 71.7245 167.245 70.772 165.023Z" fill="#45673B" style="fill:#45673B;fill:color(display-p3 0.2725 0.4038 0.2310);fill-opacity:1;"/>
<path d="M70.772 165.023L88.7478 160.155C89.1908 161.888 89.7831 165.187 90.2765 167C91.1292 170.133 88.8738 171.779 85.609 172.179L78.4932 173.05C76.1821 173.333 73.9407 172.109 72.9846 170.016C72.2072 168.314 71.4699 166.651 70.772 165.023Z" fill="#45673B" style="fill:#45673B;fill:color(display-p3 0.2725 0.4038 0.2310);fill-opacity:1;"/>
<path d="M65.6956 122.409C64.5265 122.437 63.5793 121.461 63.6692 120.295C63.9504 116.652 64.4285 112.886 65.0975 108.917C65.2527 107.996 66.0333 107.315 66.9668 107.274L83.2496 106.558C84.4391 106.506 85.4123 107.498 85.3467 108.687C85.1296 112.623 85.006 116.368 84.9808 119.999C84.9733 121.085 84.1092 121.973 83.0227 121.999L65.6956 122.409Z" fill="#45673B" style="fill:#45673B;fill:color(display-p3 0.2725 0.4038 0.2310);fill-opacity:1;"/>
<path d="M65.9699 137.869C64.8663 138.007 63.8579 137.218 63.754 136.11C63.389 132.219 63.2867 128.32 63.4381 124.301C63.4773 123.261 64.3257 122.442 65.3665 122.417L82.9307 122.001C84.0531 121.974 84.9785 122.876 84.9938 123.999C85.0378 127.227 85.1643 130.384 85.3769 133.529C85.4489 134.594 84.6834 135.534 83.6244 135.666L65.9699 137.869Z" fill="#499E2E" style="fill:#499E2E;fill:color(display-p3 0.2871 0.6202 0.1819);fill-opacity:1;"/>
<path d="M68.9913 153.409C67.9602 153.628 66.9323 153.01 66.6605 151.99C65.5743 147.916 64.7631 143.985 64.2179 140.084C64.0661 138.997 64.8422 138.01 65.9306 137.874L83.4342 135.69C84.5674 135.548 85.5898 136.383 85.6933 137.521C85.9979 140.868 86.4019 144.228 86.9094 147.671C87.0641 148.721 86.3824 149.713 85.3448 149.934L68.9913 153.409Z" fill="#45673B" style="fill:#45673B;fill:color(display-p3 0.2725 0.4038 0.2310);fill-opacity:1;"/>
<path d="M73.0132 165.502C72.0068 165.799 70.9395 165.267 70.5796 164.28C69.5188 161.373 68.5788 158.572 67.7572 155.847C67.4235 154.741 68.1145 153.596 69.2443 153.356L85.1251 149.98C86.2483 149.742 87.3427 150.496 87.5319 151.629C87.9284 154.005 88.3731 156.431 88.8671 158.928C89.0685 159.946 88.4656 160.951 87.4711 161.244L73.0132 165.502Z" fill="#499E2E" style="fill:#499E2E;fill:color(display-p3 0.2871 0.6202 0.1819);fill-opacity:1;"/>
<path d="M122.285 98.6405C123.013 103.574 119.961 108.324 115.097 109.43C94.6053 114.09 78.9782 113.159 56.6937 106.601C52.7466 105.439 50.0905 101.771 50.0905 97.6564C50.0905 91.7592 55.4208 87.3111 61.2526 88.1873C79.9738 91.0003 94.2111 91.591 111.267 90.1013C116.619 89.6338 121.5 93.3255 122.285 98.6405Z" fill="#499E2E" style="fill:#499E2E;fill:color(display-p3 0.2871 0.6202 0.1819);fill-opacity:1;"/>
<path d="M50.0905 100.722V92.6793C50.0905 89.381 53.1201 86.89 56.4204 87.4289C77.5944 90.886 92.7738 91.7165 111.267 90.1014C116.619 89.6339 121.5 93.3255 122.285 98.6405C123.013 103.574 119.961 108.323 115.098 109.429C93.732 114.289 77.6548 113.07 53.8061 105.731C51.5895 105.049 50.0905 103.011 50.0905 100.722Z" fill="#499E2E" style="fill:#499E2E;fill:color(display-p3 0.2871 0.6202 0.1819);fill-opacity:1;"/>
<path d="M122.018 107.775L118.55 89.7167C121.397 89.2464 122.519 90.231 124.758 90.3418C126.148 90.4105 127.542 91.0387 128.056 92.3318C129.687 96.4359 129.458 98.2718 128.152 103.087C127.899 104.02 127.186 104.739 126.336 105.198C124.628 106.118 124.348 107.017 122.018 107.775Z" fill="#45673B" style="fill:#45673B;fill:color(display-p3 0.2725 0.4038 0.2310);fill-opacity:1;"/>
<path d="M122.018 107.775L118.55 89.7167C120.337 89.4214 123.721 89.1061 125.594 88.7678C128.83 88.1831 130.312 90.5326 130.452 93.7733L130.757 100.836C130.856 103.13 129.438 105.234 127.245 106.005C125.461 106.631 123.72 107.221 122.018 107.775Z" fill="#45673B" style="fill:#45673B;fill:color(display-p3 0.2725 0.4038 0.2310);fill-opacity:1;"/>
<path d="M78.5288 109.301C78.4616 110.464 77.4184 111.325 76.2673 111.146C72.5923 110.574 68.8076 109.797 64.8327 108.814C63.92 108.589 63.2958 107.75 63.3305 106.811L63.9215 90.807C63.9653 89.6211 65.0261 88.7347 66.2021 88.8927C70.1861 89.4278 73.982 89.8544 77.6694 90.174C78.7549 90.268 79.5743 91.205 79.5115 92.2927L78.5288 109.301Z" fill="#45673B" style="fill:#45673B;fill:color(display-p3 0.2725 0.4038 0.2310);fill-opacity:1;"/>
<path d="M94.1773 110.267C94.228 111.38 93.3597 112.322 92.2458 112.334C88.2697 112.38 84.3069 112.165 80.2419 111.689C79.2039 111.567 78.4507 110.651 78.511 109.608L79.507 92.3696C79.5716 91.2519 80.5411 90.4059 81.6583 90.4806C84.9476 90.7004 88.1713 90.8323 91.3889 90.8773C92.4553 90.8923 93.3314 91.7309 93.38 92.7963L94.1773 110.267Z" fill="#499E2E" style="fill:#499E2E;fill:color(display-p3 0.2871 0.6202 0.1819);fill-opacity:1;"/>
<path d="M110.128 108.545C110.269 109.596 109.564 110.577 108.518 110.761C104.298 111.502 100.245 111.982 96.2436 112.202C95.1501 112.262 94.2294 111.409 94.1795 110.315L93.389 92.9922C93.3369 91.8503 94.2506 90.8982 95.3936 90.8888C98.8232 90.8603 102.274 90.7342 105.818 90.5118C106.873 90.4456 107.803 91.2019 107.944 92.2492L110.128 108.545Z" fill="#45673B" style="fill:#45673B;fill:color(display-p3 0.2725 0.4038 0.2310);fill-opacity:1;"/>
<path d="M122.673 105.564C122.897 106.6 122.273 107.631 121.25 107.905C118.209 108.716 115.287 109.417 112.452 110.006C111.328 110.239 110.251 109.462 110.098 108.323L107.977 92.4943C107.823 91.3514 108.666 90.3169 109.815 90.2236C112.268 90.0247 114.776 89.7818 117.361 89.4955C118.385 89.3821 119.332 90.0587 119.549 91.066L122.673 105.564Z" fill="#499E2E" style="fill:#499E2E;fill:color(display-p3 0.2871 0.6202 0.1819);fill-opacity:1;"/>
<ellipse cx="92.3163" cy="116.913" rx="4.63757" ry="4.57235" fill="white" style="fill:white;fill-opacity:1;"/>
<ellipse cx="92.3163" cy="133.758" rx="4.63757" ry="4.57235" fill="white" style="fill:white;fill-opacity:1;"/>
<path d="M27.4365 102.956C26.1176 105.236 26.2774 106.256 28.3486 107.398" stroke="white" style="stroke:white;stroke-opacity:1;" stroke-width="5" stroke-linecap="round"/>
<path d="M28.7765 107.646C27.4575 109.926 27.6173 110.946 29.6885 112.088" stroke="white" style="stroke:white;stroke-opacity:1;" stroke-width="5" stroke-linecap="round"/>
<path d="M30.2908 112.371C28.9718 114.651 29.1316 115.671 31.2028 116.813" stroke="white" style="stroke:white;stroke-opacity:1;" stroke-width="5" stroke-linecap="round"/>
<path d="M31.3269 117C30.008 119.279 30.1677 120.3 32.2389 121.442" stroke="white" style="stroke:white;stroke-opacity:1;" stroke-width="5" stroke-linecap="round"/>
<path d="M32.8412 121.725C31.5222 124.005 31.682 125.025 33.7532 126.167" stroke="white" style="stroke:white;stroke-opacity:1;" stroke-width="5" stroke-linecap="round"/>
<path d="M59.4167 194.177C61.3221 196.01 62.3642 196.115 64.0066 194.426" stroke="white" style="stroke:white;stroke-opacity:1;" stroke-width="5" stroke-linecap="round"/>
<path d="M64.3579 194.08C66.2633 195.913 67.3054 196.017 68.9477 194.329" stroke="white" style="stroke:white;stroke-opacity:1;" stroke-width="5" stroke-linecap="round"/>
<path d="M69.3773 193.826C71.2827 195.658 72.3248 195.763 73.9671 194.074" stroke="white" style="stroke:white;stroke-opacity:1;" stroke-width="5" stroke-linecap="round"/>
<path d="M74.1816 194.003C76.087 195.836 77.1291 195.941 78.7715 194.252" stroke="white" style="stroke:white;stroke-opacity:1;" stroke-width="5" stroke-linecap="round"/>
<path d="M79.201 193.749C81.1064 195.581 82.1485 195.686 83.7909 193.998" stroke="white" style="stroke:white;stroke-opacity:1;" stroke-width="5" stroke-linecap="round"/>
<path d="M103.353 194.177C105.258 196.01 106.3 196.114 107.942 194.426" stroke="white" style="stroke:white;stroke-opacity:1;" stroke-width="5" stroke-linecap="round"/>
<path d="M108.293 194.08C110.199 195.913 111.241 196.017 112.883 194.329" stroke="white" style="stroke:white;stroke-opacity:1;" stroke-width="5" stroke-linecap="round"/>
<path d="M113.313 193.825C115.218 195.658 116.26 195.763 117.903 194.074" stroke="white" style="stroke:white;stroke-opacity:1;" stroke-width="5" stroke-linecap="round"/>
<path d="M118.117 194.003C120.022 195.836 121.065 195.941 122.707 194.252" stroke="white" style="stroke:white;stroke-opacity:1;" stroke-width="5" stroke-linecap="round"/>
<path d="M123.137 193.749C125.042 195.581 126.084 195.686 127.726 193.997" stroke="white" style="stroke:white;stroke-opacity:1;" stroke-width="5" stroke-linecap="round"/>
<path d="M157.217 79.0651C159.66 79.6139 160.246 80.4124 159.62 82.6998" stroke="white" style="stroke:white;stroke-opacity:1;" stroke-width="5" stroke-linecap="round"/>
<path d="M159.499 83.1803C161.943 83.7291 162.529 84.5276 161.903 86.815" stroke="white" style="stroke:white;stroke-opacity:1;" stroke-width="5" stroke-linecap="round"/>
<path d="M161.688 87.4476C164.131 87.9964 164.717 88.7949 164.091 91.0823" stroke="white" style="stroke:white;stroke-opacity:1;" stroke-width="5" stroke-linecap="round"/>
<path d="M164.134 91.2982C166.578 91.847 167.164 92.6455 166.537 94.9329" stroke="white" style="stroke:white;stroke-opacity:1;" stroke-width="5" stroke-linecap="round"/>
<path d="M166.322 95.5653C168.766 96.1141 169.352 96.9126 168.726 99.2" stroke="white" style="stroke:white;stroke-opacity:1;" stroke-width="5" stroke-linecap="round"/>
<defs>
<filter id="filter0_d_302_1041" x="0" y="0" width="191.267" height="225.861" filterUnits="userSpaceOnUse" color-interpolation-filters="sRGB">
<feFlood flood-opacity="0" result="BackgroundImageFix"/>
<feColorMatrix in="SourceAlpha" type="matrix" values="0 0 0 0 0 0 0 0 0 0 0 0 0 0 0 0 0 0 127 0" result="hardAlpha"/>
<feMorphology radius="10" operator="dilate" in="SourceAlpha" result="effect1_dropShadow_302_1041"/>
<feOffset dy="4"/>
<feGaussianBlur stdDeviation="2.5"/>
<feComposite in2="hardAlpha" operator="out"/>
<feColorMatrix type="matrix" values="0 0 0 0 0 0 0 0 0 0 0 0 0 0 0 0 0 0 0.4 0"/>
<feBlend mode="normal" in2="BackgroundImageFix" result="effect1_dropShadow_302_1041"/>
<feBlend mode="normal" in="SourceGraphic" in2="effect1_dropShadow_302_1041" result="shape"/>
</filter>
</defs>
</svg>
