<svg width="214" height="89" viewBox="0 0 214 89" fill="none" xmlns="http://www.w3.org/2000/svg">
<g filter="url(#filter0_g_302_1102)">
<rect x="2" y="2" width="210" height="55" rx="20" fill="white" style="fill:white;fill-opacity:1;"/>
</g>
<g filter="url(#filter1_g_302_1102)">
<path d="M99.6158 79.4038C98.4007 81.0982 95.7502 80.0794 96.0838 78.0211C99.2457 58.5107 105.778 45.1195 124.033 23.4802C124.752 22.6283 126.037 22.5269 126.876 23.2615L140.986 35.6259C141.972 36.4905 141.87 38.0564 140.788 38.7978C124.072 50.2493 113.873 59.5238 99.6158 79.4038Z" fill="white" style="fill:white;fill-opacity:1;"/>
</g>
<path d="M25.9497 25.84C26.003 25.6667 26.1297 25.6133 26.3297 25.68C26.543 25.7467 26.6964 25.8867 26.7897 26.1C27.043 26.6467 27.2564 28 27.4297 30.16L27.5297 31.5H29.4097H31.2897L31.3497 31.96C31.3897 32.2533 31.283 32.4733 31.0297 32.62C30.8297 32.7133 30.103 32.82 28.8497 32.94C27.6097 33.0467 26.903 33.06 26.7297 32.98C26.343 32.8333 26.143 31.9267 26.1297 30.26C26.1297 29.0333 26.0897 28.0333 26.0097 27.26C25.9297 26.4333 25.9097 25.96 25.9497 25.84ZM36.3097 25.82C36.6297 25.6067 36.8697 25.6733 37.0297 26.02C37.2564 26.5667 37.523 28.7 37.8297 32.42L37.9897 34.68L37.5697 35.04C37.3164 35.2533 37.0764 35.3533 36.8497 35.34C36.623 35.3267 36.463 35.2133 36.3697 35C36.303 34.8267 36.2697 34.0867 36.2697 32.78C36.283 31.5 36.2364 30.7933 36.1297 30.66C36.023 30.5533 35.643 30.52 34.9897 30.56L33.9897 30.64L33.9497 31.5C33.9097 32.3133 33.8097 32.8133 33.6497 33C33.4897 33.1867 33.2164 33.14 32.8297 32.86C32.6697 32.74 32.5697 32.52 32.5297 32.2C32.503 31.8667 32.483 31.0267 32.4697 29.68C32.4697 27.84 32.4364 26.7267 32.3697 26.34C32.3564 26.1667 32.3697 26.0467 32.4097 25.98C32.4497 25.9133 32.5364 25.8733 32.6697 25.86C32.8297 25.8467 32.9564 25.8867 33.0497 25.98C33.143 26.0733 33.2297 26.2467 33.3097 26.5C33.403 26.74 33.503 27.1133 33.6097 27.62C33.623 27.7667 33.663 27.9867 33.7297 28.28C33.7964 28.5733 33.8297 28.76 33.8297 28.84C33.8697 28.9733 33.943 29.0733 34.0497 29.14C34.1697 29.2067 34.383 29.2667 34.6897 29.32C35.2364 29.3867 35.6164 29.3867 35.8297 29.32C36.0297 29.2667 36.143 29.1667 36.1697 29.02C36.1964 28.8733 36.183 28.4 36.1297 27.6C36.103 26.96 36.0964 26.52 36.1097 26.28C36.1364 26.04 36.203 25.8867 36.3097 25.82ZM52.0122 24.1C52.0389 24.02 52.1522 23.98 52.3522 23.98C52.5122 23.98 52.6989 24.1933 52.9122 24.62C53.1255 25.0467 53.2322 25.4333 53.2322 25.78C53.2322 25.98 53.2655 26.26 53.3322 26.62L53.3922 27.1L54.6322 27.06C55.1389 27.0333 55.4922 27.04 55.6922 27.08C55.9055 27.1067 56.0922 27.1867 56.2522 27.32C56.4389 27.4667 56.5389 27.5867 56.5522 27.68C56.5789 27.7733 56.5522 27.9133 56.4722 28.1C56.3655 28.3133 56.2455 28.4467 56.1122 28.5C55.9789 28.54 55.5922 28.56 54.9522 28.56C54.0589 28.56 53.5789 28.5867 53.5122 28.64C53.4589 28.6933 53.4855 29.0267 53.5922 29.64C53.6455 30.04 53.6589 30.3267 53.6322 30.5C53.6189 30.66 53.5522 30.8267 53.4322 31C53.2589 31.2133 53.0522 31.34 52.8122 31.38C52.5855 31.42 52.3989 31.3533 52.2522 31.18C52.1722 31.1133 52.0989 30.0467 52.0322 27.98C51.9789 25.9 51.9722 24.6067 52.0122 24.1ZM46.6722 25.34C47.0455 25.2333 47.3122 25.18 47.4722 25.18C47.6322 25.18 47.8189 25.2333 48.0322 25.34C48.6989 25.6867 49.1655 26.1867 49.4322 26.84C49.5789 27.2 49.6522 27.5267 49.6522 27.82C49.6522 28.1133 49.5722 28.44 49.4122 28.8C49.2122 29.2933 48.8055 29.62 48.1922 29.78C47.5789 29.94 46.9655 29.9067 46.3522 29.68C45.7389 29.44 45.3255 29.0667 45.1122 28.56C44.8989 28.0533 44.9722 27.4333 45.3322 26.7C45.7055 25.9533 46.1522 25.5 46.6722 25.34ZM48.3722 26.64C48.2122 26.4667 47.9989 26.3733 47.7322 26.36C47.4789 26.3333 47.2322 26.3667 46.9922 26.46C46.7655 26.5533 46.5655 26.6933 46.3922 26.88C46.2189 27.0667 46.1322 27.28 46.1322 27.52C46.1322 27.8133 46.2655 28.0867 46.5322 28.34C46.7989 28.5933 47.1255 28.7467 47.5122 28.8C47.7522 28.8533 47.9322 28.86 48.0522 28.82C48.1722 28.7667 48.3122 28.64 48.4722 28.44C48.6855 28.1733 48.7855 27.88 48.7722 27.56C48.7589 27.2267 48.6255 26.92 48.3722 26.64ZM47.8322 31.8C47.9789 31.6533 48.1122 31.58 48.2322 31.58C48.3522 31.58 48.5122 31.9667 48.7122 32.74C48.9122 33.5133 49.0122 34.1333 49.0122 34.6C49.0122 34.96 49.0322 35.1667 49.0722 35.22C49.1122 35.2733 49.2722 35.28 49.5522 35.24C50.1522 35.1333 50.8589 35.0333 51.6722 34.94C52.4855 34.8467 53.0389 34.8 53.3322 34.8C53.6522 34.8 53.8655 34.8733 53.9722 35.02C54.0789 35.1667 54.0855 35.4067 53.9922 35.74C53.9255 36.0333 53.7122 36.24 53.3522 36.36C53.0055 36.48 52.2589 36.58 51.1122 36.66C50.1522 36.7533 49.5322 36.7867 49.2522 36.76C48.9722 36.7467 48.7255 36.68 48.5122 36.56C48.1789 36.3467 47.9522 36.1133 47.8322 35.86C47.7122 35.58 47.6522 34.86 47.6522 33.7C47.6655 32.54 47.7255 31.9067 47.8322 31.8ZM67.1303 25.68H67.5103C67.9236 25.68 68.2303 26.1733 68.4303 27.16C68.6303 28.1333 68.797 29.8867 68.9303 32.42C68.9836 33.5133 68.997 34.1867 68.9703 34.44C68.9436 34.68 68.8503 34.88 68.6903 35.04C68.5436 35.1733 68.4103 35.2533 68.2903 35.28C68.1836 35.2933 68.037 35.2733 67.8503 35.22L67.3903 35.04L67.3703 32.02C67.3703 30.1 67.3236 28.5333 67.2303 27.32L67.1303 25.68ZM61.2703 26.08C61.897 25.8 62.497 25.8667 63.0703 26.28C63.6436 26.6933 63.9303 27.2667 63.9303 28C63.9303 29.36 63.2903 30.0467 62.0103 30.06C61.6636 30.06 61.4036 30.0267 61.2303 29.96C61.0703 29.8933 60.8636 29.7333 60.6103 29.48C60.477 29.3333 60.3636 29.2067 60.2703 29.1C60.1903 28.98 60.1303 28.86 60.0903 28.74C60.0503 28.62 60.0303 28.48 60.0303 28.32C60.0303 27.8667 60.157 27.42 60.4103 26.98C60.6636 26.5267 60.9503 26.2267 61.2703 26.08ZM62.9503 27.26C62.8703 27.14 62.7636 27.0533 62.6303 27C62.5103 26.9467 62.3836 26.9333 62.2503 26.96C62.117 26.9733 61.977 27.0133 61.8303 27.08C61.6836 27.1333 61.5503 27.2133 61.4303 27.32C61.3236 27.4133 61.2303 27.54 61.1503 27.7C61.0836 27.8467 61.0503 28 61.0503 28.16C61.0503 28.2533 61.0903 28.3533 61.1703 28.46C61.2503 28.5533 61.3436 28.6467 61.4503 28.74C61.5703 28.8333 61.7036 28.9067 61.8503 28.96C61.997 29.0133 62.1236 29.04 62.2303 29.04C62.5236 29.04 62.7636 28.8133 62.9503 28.36C63.137 27.8933 63.137 27.5267 62.9503 27.26ZM64.5903 31.4C65.2303 31.3067 65.657 31.2867 65.8703 31.34C66.097 31.38 66.2303 31.5333 66.2703 31.8C66.297 31.9867 66.277 32.1333 66.2103 32.24C66.1436 32.3333 66.0036 32.4467 65.7903 32.58C65.4036 32.8067 64.557 32.9867 63.2503 33.12C61.9436 33.2533 60.697 33.2933 59.5103 33.24C58.337 33.1867 57.7036 33.0533 57.6103 32.84C57.557 32.6933 57.557 32.54 57.6103 32.38C57.677 32.2067 57.7836 32.0933 57.9303 32.04C58.077 31.9733 59.1036 31.88 61.0103 31.76C62.8903 31.64 64.0836 31.52 64.5903 31.4ZM77.8688 23.74C77.9621 23.6467 78.2888 23.64 78.8488 23.72C79.2888 23.7733 79.8821 23.8467 80.6288 23.94C81.1754 24.02 81.5354 24.1067 81.7088 24.2C81.8821 24.2933 81.9688 24.4467 81.9688 24.66C81.9688 25.14 81.2021 25.2267 79.6688 24.92C78.6821 24.7067 78.1421 24.58 78.0488 24.54C77.8888 24.5 77.7888 24.3867 77.7488 24.2C77.7221 24.0133 77.7621 23.86 77.8688 23.74ZM79.7888 26.06C80.8154 25.98 81.5354 25.96 81.9488 26C82.3621 26.0267 82.6421 26.1333 82.7888 26.32C83.1221 26.76 82.8688 27.08 82.0288 27.28C81.7088 27.3467 81.3488 27.3867 80.9488 27.4C80.7488 27.4133 80.5688 27.4333 80.4088 27.46C80.2488 27.4867 80.1221 27.5133 80.0288 27.54C79.9354 27.5533 79.8888 27.5733 79.8888 27.6C79.9288 27.7333 79.9554 27.8133 79.9688 27.84C79.9954 27.92 80.3888 28.14 81.1488 28.5C81.9088 28.8467 82.4888 29.0867 82.8888 29.22C83.3421 29.3533 83.6354 29.4867 83.7688 29.62C83.9154 29.74 83.9888 29.9267 83.9888 30.18C83.9888 30.46 83.8888 30.6267 83.6888 30.68C83.5021 30.72 83.1488 30.66 82.6288 30.5C82.0421 30.3267 81.7088 30.24 81.6288 30.24C81.5221 30.24 81.4554 30.3333 81.4288 30.52C81.4021 30.6933 81.4154 30.94 81.4688 31.26C81.5221 31.5667 81.6154 31.9267 81.7488 32.34L82.2088 33.66L83.5088 33.54C84.2954 33.4867 84.8354 33.4267 85.1288 33.36C85.3554 33.28 85.5888 33.3733 85.8288 33.64C86.0821 33.88 86.2021 34.1267 86.1888 34.38C86.1888 34.6333 86.0621 34.82 85.8088 34.94C85.3688 35.1533 83.6688 35.24 80.7088 35.2C77.7488 35.1467 76.2021 35.0133 76.0688 34.8C75.9621 34.6533 75.9421 34.5067 76.0088 34.36C76.0754 34.2 76.1954 34.0933 76.3688 34.04C76.5421 33.96 77.3354 33.8667 78.7488 33.76C80.1088 33.6667 80.8288 33.6 80.9088 33.56C80.9221 33.52 80.8488 33.2267 80.6888 32.68C80.5421 32.2 80.4888 31.7267 80.5288 31.26C80.5688 30.78 80.6888 30.4333 80.8888 30.22C80.9954 30.0867 81.0221 29.98 80.9688 29.9C80.9288 29.8067 80.7354 29.64 80.3888 29.4L79.6088 28.88V29.36C79.6088 29.7867 79.5354 30.1533 79.3888 30.46C79.2421 30.7533 79.0688 30.8933 78.8688 30.88C78.5621 30.84 78.3821 30.6933 78.3288 30.44C78.2754 30.1733 78.3288 29.7133 78.4888 29.06C78.6888 28.26 78.7621 27.7733 78.7088 27.6C78.6421 27.44 78.3621 27.3533 77.8688 27.34C77.2821 27.3267 76.8754 27.2733 76.6488 27.18C76.4354 27.0867 76.3288 26.9267 76.3288 26.7C76.3288 26.4867 76.3688 26.36 76.4488 26.32C76.5421 26.28 76.7821 26.2533 77.1688 26.24C77.3954 26.2267 78.2688 26.1667 79.7888 26.06ZM89.2397 24.44C89.3864 24.3733 90.2197 24.34 91.7397 24.34C93.273 24.34 94.153 24.3667 94.3797 24.42C94.6997 24.5267 94.9264 24.8 95.0597 25.24C95.193 25.6667 95.293 26.52 95.3597 27.8C95.3864 28.52 95.3997 29.0667 95.3997 29.44C95.413 29.8133 95.3997 30.12 95.3597 30.36C95.3197 30.6 95.2597 30.7533 95.1797 30.82C95.113 30.8733 94.9997 30.9 94.8397 30.9C94.693 30.9 94.5797 30.8733 94.4997 30.82C94.4197 30.7533 94.3597 30.6333 94.3197 30.46C94.2797 30.2867 94.2464 30.0133 94.2197 29.64L94.1797 29.14L92.0397 29.04C90.3997 28.9867 89.5664 28.84 89.5397 28.6C89.553 28.4933 89.6197 28.3733 89.7397 28.24C89.9397 28.0533 90.733 27.9067 92.1197 27.8L94.1797 27.62L94.1997 27.02C94.213 26.3133 94.153 25.9 94.0197 25.78C93.8997 25.6467 93.4864 25.5667 92.7797 25.54C92.033 25.54 91.193 25.5 90.2597 25.42C89.6864 25.3667 89.333 25.32 89.1997 25.28C89.0797 25.2267 89.0197 25.1067 89.0197 24.92C89.0197 24.64 89.093 24.48 89.2397 24.44ZM91.8197 29.9C91.9664 29.7267 92.073 29.6867 92.1397 29.78C92.2064 29.8867 92.3264 30.2133 92.4997 30.76C92.7664 31.5333 92.8997 32.0267 92.8997 32.24C92.913 32.5733 93.0597 32.78 93.3397 32.86C93.633 32.9267 94.453 32.9667 95.7997 32.98L98.3597 33.02L98.5397 33.5C98.6597 33.8067 98.633 34.0467 98.4597 34.22C98.3264 34.3533 97.9197 34.44 97.2397 34.48C96.5597 34.5067 95.0464 34.52 92.6997 34.52L87.2597 34.54L87.1797 34.16C87.1397 33.88 87.333 33.6667 87.7597 33.52C88.1997 33.3733 88.9397 33.2667 89.9797 33.2L91.6997 33.08L91.5997 31.64C91.5597 31.04 91.553 30.6333 91.5797 30.42C91.6064 30.2067 91.6864 30.0333 91.8197 29.9ZM100.522 23.9C100.575 23.7933 100.715 23.7333 100.942 23.72C101.168 23.7067 101.635 23.7267 102.342 23.78C103.315 23.82 103.988 23.9 104.362 24.02C104.735 24.14 104.922 24.3267 104.922 24.58C104.922 24.7133 104.862 24.8067 104.742 24.86C104.622 24.9 104.315 24.9333 103.822 24.96C103.488 24.9733 103.148 24.9667 102.802 24.94C102.468 24.9133 102.162 24.8667 101.882 24.8C101.602 24.72 101.348 24.6333 101.122 24.54C100.895 24.4467 100.728 24.3467 100.622 24.24C100.528 24.12 100.495 24.0067 100.522 23.9ZM108.742 27.7C108.742 25.74 108.795 24.7 108.902 24.58C108.928 24.5133 108.995 24.48 109.102 24.48C109.342 24.48 109.548 24.7533 109.722 25.3C109.895 25.8467 110.048 26.7267 110.182 27.94C110.342 29.5533 110.402 30.52 110.362 30.84C110.322 31.16 110.128 31.38 109.782 31.5C109.542 31.5667 109.315 31.4933 109.102 31.28C109.008 31.2 108.942 31.12 108.902 31.04C108.875 30.9467 108.842 30.76 108.802 30.48C108.775 30.1867 108.755 29.86 108.742 29.5C108.742 29.14 108.742 28.54 108.742 27.7ZM99.8816 26.12C100.042 26.08 101.042 26.0467 102.882 26.02C103.642 26.02 104.202 26.0267 104.562 26.04C104.935 26.04 105.242 26.0733 105.482 26.14C105.735 26.1933 105.882 26.26 105.922 26.34C105.975 26.42 106.002 26.5467 106.002 26.72C106.002 26.84 105.915 26.9533 105.742 27.06C105.582 27.1533 105.348 27.2333 105.042 27.3C104.735 27.3667 104.388 27.4 104.002 27.4C103.322 27.4 102.995 27.46 103.022 27.58C103.035 27.66 103.608 28.0133 104.742 28.64C105.648 29.1333 106.242 29.5133 106.522 29.78C106.815 30.0467 106.875 30.2867 106.702 30.5C106.448 30.7667 106.042 30.8067 105.482 30.62C104.922 30.42 104.302 30.02 103.622 29.42C103.115 28.9533 102.822 28.72 102.742 28.72C102.662 28.72 102.622 28.9133 102.622 29.3C102.622 29.7133 102.535 30.1333 102.362 30.56C102.282 30.7733 102.208 30.9267 102.142 31.02C102.088 31.1 102.022 31.16 101.942 31.2C101.862 31.2267 101.762 31.2333 101.642 31.22C101.108 31.1533 101.022 30.4867 101.382 29.22C101.382 29.2067 101.382 29.1933 101.382 29.18C101.635 28.3 101.755 27.78 101.742 27.62C101.728 27.4467 101.548 27.3067 101.202 27.2C101.188 27.2 101.182 27.2 101.182 27.2C100.662 27.0933 100.302 27.0267 100.102 27C99.9949 26.9867 99.9016 26.9533 99.8216 26.9C99.7416 26.8333 99.6816 26.7667 99.6416 26.7C99.6149 26.62 99.6016 26.54 99.6016 26.46C99.6016 26.38 99.6282 26.3133 99.6816 26.26C99.7349 26.2067 99.8016 26.16 99.8816 26.12ZM107.462 31.62C107.515 31.46 107.655 31.3933 107.882 31.42C108.108 31.4467 108.268 31.5467 108.362 31.72C108.482 31.9467 108.595 32.6667 108.702 33.88C108.808 35.08 108.828 35.8533 108.762 36.2C108.642 36.8533 108.355 37.3 107.902 37.54C107.462 37.78 106.822 37.8267 105.982 37.68C105.688 37.6267 105.455 37.58 105.282 37.54C105.108 37.5133 104.935 37.46 104.762 37.38C104.588 37.3133 104.455 37.2467 104.362 37.18C104.282 37.1267 104.195 37.02 104.102 36.86C104.008 36.7133 103.942 36.5667 103.902 36.42C103.875 36.2733 103.848 36.0667 103.822 35.8C103.795 35.52 103.775 35.2467 103.762 34.98C103.762 34.7133 103.762 34.3533 103.762 33.9C103.748 33.0067 103.755 32.4667 103.782 32.28C103.822 32.08 103.922 31.9733 104.082 31.96C104.228 31.9333 104.342 31.96 104.422 32.04C104.502 32.1067 104.575 32.24 104.642 32.44C104.775 32.8133 104.842 33.0933 104.842 33.28C104.842 33.4267 104.908 33.5133 105.042 33.54C105.175 33.5667 105.515 33.5667 106.062 33.54L107.282 33.5L107.322 32.66C107.348 32.18 107.395 31.8333 107.462 31.62ZM106.702 34.8C106.155 34.8 105.802 34.7733 105.642 34.72C105.388 34.6267 105.208 34.66 105.102 34.82C105.008 34.98 105.008 35.2333 105.102 35.58L105.242 36.22L106.402 36.3L107.542 36.34V35.56V34.8H106.702ZM119.539 25.46C119.566 25.3667 119.686 25.32 119.899 25.32C120.073 25.32 120.239 25.4733 120.399 25.78C120.559 26.0733 120.693 26.4867 120.799 27.02C120.893 27.4467 120.993 28.82 121.099 31.14C121.166 32.8467 121.193 33.88 121.179 34.24C121.166 34.6 121.079 34.86 120.919 35.02C120.746 35.2067 120.513 35.2867 120.219 35.26C119.939 35.2333 119.766 35.1067 119.699 34.88C119.646 34.8 119.599 33.3067 119.559 30.4C119.533 27.48 119.526 25.8333 119.539 25.46ZM112.819 27.72C113.379 27.44 113.919 27.3667 114.439 27.5C114.959 27.6333 115.379 27.96 115.699 28.48C115.859 28.7333 115.953 28.9733 115.979 29.2C116.019 29.4267 116.026 29.8 115.999 30.32C115.973 30.8667 115.926 31.24 115.859 31.44C115.806 31.6267 115.679 31.8267 115.479 32.04C115.293 32.24 115.126 32.36 114.979 32.4C114.846 32.4267 114.613 32.4133 114.279 32.36C113.399 32.2133 112.666 31.8867 112.079 31.38C111.506 30.8733 111.273 30.3467 111.379 29.8C111.566 28.8133 112.046 28.12 112.819 27.72ZM114.739 28.8C114.526 28.5867 114.233 28.5067 113.859 28.56C113.499 28.6 113.186 28.7533 112.919 29.02C112.666 29.3 112.526 29.5333 112.499 29.72C112.473 29.9067 112.566 30.12 112.779 30.36C112.993 30.6133 113.326 30.82 113.779 30.98C114.233 31.14 114.546 31.1667 114.719 31.06C114.906 30.94 114.999 30.5867 114.999 30C115.013 29.4 114.926 29 114.739 28.8ZM129.776 22.38C130.096 22.0733 130.376 22.3 130.616 23.06C130.762 23.54 130.869 24.12 130.936 24.8L131.056 26.18L132.856 26.2C133.576 26.2 134.129 26.2133 134.516 26.24C134.902 26.2533 135.222 26.2933 135.476 26.36C135.729 26.4133 135.889 26.4867 135.956 26.58C136.036 26.66 136.076 26.7733 136.076 26.92C136.076 27.1733 135.969 27.3467 135.756 27.44C135.556 27.52 135.222 27.54 134.756 27.5L134.136 27.44L134.076 28.48L134.016 29.54L135.936 29.44C136.816 29.4 137.369 29.3933 137.596 29.42C137.822 29.4333 138.009 29.52 138.156 29.68C138.529 30.0933 138.409 30.4333 137.796 30.7C137.489 30.82 136.476 30.9467 134.756 31.08C133.036 31.2 131.782 31.2267 130.996 31.16C130.262 31.1067 129.722 31.0667 129.376 31.04C129.042 31 128.749 30.9467 128.496 30.88C128.256 30.8 128.149 30.72 128.176 30.64C128.202 30.5467 128.216 30.42 128.216 30.26C128.256 30.1133 128.409 30.02 128.676 29.98C128.942 29.9267 129.576 29.8667 130.576 29.8L132.856 29.7L132.876 29.06C132.876 28.98 132.876 28.8667 132.876 28.72C132.889 28.56 132.896 28.4267 132.896 28.32C132.909 28.2 132.922 28.1067 132.936 28.04C132.936 27.8133 132.876 27.6867 132.756 27.66C132.676 27.6333 132.369 27.6333 131.836 27.66C131.329 27.6867 130.989 27.6867 130.816 27.66C130.642 27.62 130.462 27.5067 130.276 27.32C130.076 27.1467 129.949 26.94 129.896 26.7C129.842 26.4467 129.796 25.78 129.756 24.7C129.702 23.2333 129.709 22.46 129.776 22.38ZM131.376 32.96C132.029 32.88 133.036 32.8267 134.396 32.8C135.769 32.7733 136.549 32.7933 136.736 32.86C137.296 33.0333 137.596 33.8867 137.636 35.42L137.676 36.9L137.196 36.96C136.796 37 136.509 36.9 136.336 36.66C136.176 36.42 136.096 35.9867 136.096 35.36C136.096 34.6267 136.069 34.2333 136.016 34.18C135.936 34.1 135.496 34.1267 134.696 34.26C134.029 34.34 133.189 34.3667 132.176 34.34C131.162 34.3 130.536 34.2133 130.296 34.08C129.869 33.8667 129.829 33.6333 130.176 33.38C130.429 33.18 130.829 33.04 131.376 32.96ZM141.968 24.32C142.274 24.24 143.128 24.2 144.528 24.2C145.941 24.1867 146.854 24.2133 147.268 24.28C147.654 24.3467 147.928 24.5867 148.088 25C148.248 25.4 148.408 26.2933 148.568 27.68C148.728 28.9333 148.781 29.76 148.728 30.16C148.688 30.5467 148.521 30.74 148.228 30.74C147.881 30.74 147.634 30.6267 147.488 30.4C147.354 30.1733 147.274 29.7867 147.248 29.24C147.248 28.6667 147.234 28.2933 147.208 28.12C147.168 28.04 147.141 27.54 147.128 26.62L147.108 25.32L145.468 25.42C144.388 25.4733 143.441 25.4667 142.628 25.4C142.068 25.32 141.728 25.26 141.608 25.22C141.501 25.1667 141.448 25.04 141.448 24.84C141.448 24.68 141.481 24.56 141.548 24.48C141.628 24.4 141.768 24.3467 141.968 24.32ZM144.228 29.64C144.388 29.48 144.514 29.4 144.608 29.4C144.661 29.4 144.768 29.6467 144.928 30.14C145.101 30.62 145.241 31.1133 145.348 31.62C145.454 32.18 145.508 32.4733 145.508 32.5L145.608 32.94H148.388H151.188L151.328 33.36C151.461 33.6667 151.474 33.9 151.368 34.06C151.261 34.2067 151.014 34.3067 150.628 34.36C150.188 34.4533 148.254 34.5 144.828 34.5C141.414 34.5 139.648 34.46 139.528 34.38C139.381 34.2867 139.321 34.16 139.348 34C139.388 33.8267 139.514 33.6667 139.728 33.52C140.008 33.3467 140.821 33.2333 142.168 33.18L144.188 33.04L144.108 31.5C144.068 30.4333 144.108 29.8133 144.228 29.64ZM165.43 23.68C165.55 23.4 165.776 23.4133 166.11 23.72C166.55 24.2 166.856 25.52 167.03 27.68C167.096 28.28 167.13 28.7533 167.13 29.1C167.13 29.4333 167.096 29.7133 167.03 29.94C166.976 30.1533 166.89 30.3 166.77 30.38C166.663 30.4467 166.503 30.4733 166.29 30.46C166.05 30.4467 165.876 30.3933 165.77 30.3C165.676 30.2067 165.61 30.04 165.57 29.8C165.543 29.56 165.523 29.1733 165.51 28.64C165.51 28.1467 165.476 27.1267 165.41 25.58C165.383 24.4333 165.39 23.8 165.43 23.68ZM159.43 24.92C159.71 24.76 160.096 24.68 160.59 24.68C161.096 24.68 161.476 24.76 161.73 24.92C162.303 25.2933 162.61 25.8867 162.65 26.7C162.69 27.5 162.45 28.1333 161.93 28.6C161.383 29.0533 160.883 29.2867 160.43 29.3C159.976 29.3133 159.503 29.1067 159.01 28.68C158.823 28.52 158.69 28.3867 158.61 28.28C158.543 28.1733 158.496 28.0533 158.47 27.92C158.443 27.7867 158.43 27.5933 158.43 27.34C158.43 26.8067 158.523 26.3067 158.71 25.84C158.91 25.3733 159.15 25.0667 159.43 24.92ZM161.65 26.02C161.516 25.7933 161.23 25.68 160.79 25.68C160.403 25.68 160.076 25.8133 159.81 26.08C159.556 26.3333 159.43 26.6333 159.43 26.98C159.443 27.3267 159.59 27.62 159.87 27.86C160.163 28.0733 160.41 28.18 160.61 28.18C160.81 28.18 161.03 28.06 161.27 27.82C161.496 27.5667 161.65 27.2667 161.73 26.92C161.81 26.56 161.783 26.26 161.65 26.02ZM160.65 30.72C160.996 30.4933 161.196 30.6733 161.25 31.26C161.263 31.46 161.25 31.6933 161.21 31.96C161.143 32.6133 161.156 32.94 161.25 32.94C161.356 32.94 161.67 33.14 162.19 33.54C162.736 33.9667 163.25 34.24 163.73 34.36C163.783 34.3733 163.863 34.4067 163.97 34.46C164.236 34.54 164.403 34.5333 164.47 34.44C164.536 34.3467 164.63 33.9733 164.75 33.32C164.79 33.0933 164.823 32.9133 164.85 32.78C164.983 32.0733 165.103 31.5867 165.21 31.32C165.316 31.04 165.45 30.9 165.61 30.9C165.783 30.9 165.93 31.06 166.05 31.38C166.17 31.7 166.203 32.02 166.15 32.34C166.123 32.5667 166.143 32.7267 166.21 32.82C166.29 32.9133 166.51 33.0467 166.87 33.22C167.79 33.6733 168.443 34.04 168.83 34.32C169.216 34.6 169.41 34.84 169.41 35.04C169.41 35.7467 168.99 35.9133 168.15 35.54C167.776 35.38 167.356 35.12 166.89 34.76C166.316 34.3333 166.01 34.12 165.97 34.12C165.93 34.12 165.876 34.3267 165.81 34.74C165.743 35.0867 165.63 35.4067 165.47 35.7C165.31 35.9933 165.163 36.14 165.03 36.14C164.923 36.14 164.77 36.0333 164.57 35.82C164.37 35.62 164.063 35.52 163.65 35.52C163.29 35.52 162.963 35.4533 162.67 35.32C162.39 35.1733 162.023 34.9 161.57 34.5L160.87 33.94L160.77 34.44C160.69 34.6667 160.596 35.0267 160.49 35.52C160.423 35.8133 160.29 36 160.09 36.08C159.903 36.1733 159.703 36.1333 159.49 35.96C159.316 35.8133 159.256 35.5067 159.31 35.04C159.403 34.48 159.623 33.64 159.97 32.52C160.316 31.3867 160.543 30.7867 160.65 30.72ZM178.862 27.7C178.862 26.9133 178.876 26.4333 178.902 26.26C178.929 26.0867 179.022 26 179.182 26C179.316 26 179.422 26.02 179.502 26.06C179.582 26.1 179.662 26.2 179.742 26.36C179.822 26.5067 179.882 26.6933 179.922 26.92C179.962 27.1467 180.009 27.4867 180.062 27.94C180.129 28.38 180.182 28.8667 180.222 29.4C180.262 29.9333 180.316 30.6333 180.382 31.5C180.382 31.5933 180.389 31.72 180.402 31.88C180.496 33.24 180.529 34.0467 180.502 34.3C180.489 34.5533 180.376 34.74 180.162 34.86C180.149 34.8733 180.136 34.88 180.122 34.88C179.922 35.0133 179.776 35.08 179.682 35.08C179.602 35.08 179.462 35.02 179.262 34.9C179.076 34.78 178.962 34.6067 178.922 34.38C178.882 34.1533 178.849 33.5467 178.822 32.56C178.809 32.1067 178.789 31.7533 178.762 31.5C178.749 31.2467 178.729 31.0467 178.702 30.9C178.689 30.74 178.669 30.64 178.642 30.6C178.616 30.5467 178.576 30.5267 178.522 30.54C178.389 30.5667 177.729 30.58 176.542 30.58H174.842L174.742 31.18C174.516 32.5 173.596 32.7867 171.982 32.04C171.662 31.88 171.382 31.7067 171.142 31.52C170.902 31.32 170.716 31.1133 170.582 30.9C170.462 30.6867 170.402 30.4733 170.402 30.26C170.402 29.58 170.616 28.96 171.042 28.4C171.469 27.8267 171.962 27.4933 172.522 27.4C172.936 27.36 173.342 27.4667 173.742 27.72C174.142 27.96 174.436 28.28 174.622 28.68C174.742 28.9333 174.862 29.0867 174.982 29.14C175.102 29.1933 175.429 29.22 175.962 29.22C176.896 29.2467 177.562 29.28 177.962 29.32L178.862 29.42V27.7ZM173.622 28.8C173.462 28.64 173.202 28.56 172.842 28.56C172.376 28.56 172.016 28.7867 171.762 29.24C171.522 29.6933 171.536 30.1 171.802 30.46C171.949 30.6467 172.249 30.82 172.702 30.98C173.169 31.14 173.476 31.1733 173.622 31.08C173.782 30.9733 173.862 30.62 173.862 30.02C173.862 29.4067 173.782 29 173.622 28.8ZM182.436 33.98C182.636 33.9267 182.842 34.02 183.056 34.26C183.269 34.5 183.376 34.7667 183.376 35.06C183.376 35.5267 183.129 35.8133 182.636 35.92C182.316 36 182.049 35.96 181.836 35.8C181.622 35.6267 181.516 35.38 181.516 35.06C181.516 34.78 181.589 34.5533 181.736 34.38C181.882 34.2067 182.116 34.0733 182.436 33.98ZM185.287 33.98C185.487 33.9267 185.694 34.02 185.907 34.26C186.121 34.5 186.227 34.7667 186.227 35.06C186.227 35.5267 185.981 35.8133 185.487 35.92C185.167 36 184.901 35.96 184.687 35.8C184.474 35.6267 184.367 35.38 184.367 35.06C184.367 34.78 184.441 34.5533 184.587 34.38C184.734 34.2067 184.967 34.0733 185.287 33.98ZM188.139 33.98C188.339 33.9267 188.545 34.02 188.759 34.26C188.972 34.5 189.079 34.7667 189.079 35.06C189.079 35.5267 188.832 35.8133 188.339 35.92C188.019 36 187.752 35.96 187.539 35.8C187.325 35.6267 187.219 35.38 187.219 35.06C187.219 34.78 187.292 34.5533 187.439 34.38C187.585 34.2067 187.819 34.0733 188.139 33.98Z" fill="black" style="fill:black;fill-opacity:1;"/>
<defs>
<filter id="filter0_g_302_1102" x="0" y="0" width="214" height="59" filterUnits="userSpaceOnUse" color-interpolation-filters="sRGB">
<feFlood flood-opacity="0" result="BackgroundImageFix"/>
<feBlend mode="normal" in="SourceGraphic" in2="BackgroundImageFix" result="shape"/>
<feTurbulence type="fractalNoise" baseFrequency="0.5 0.5" numOctaves="3" seed="4734" />
<feDisplacementMap in="shape" scale="4" xChannelSelector="R" yChannelSelector="G" result="displacedImage" width="100%" height="100%" />
<feMerge result="effect1_texture_302_1102">
<feMergeNode in="displacedImage"/>
</feMerge>
</filter>
<filter id="filter1_g_302_1102" x="94.0549" y="20.7699" width="49.6117" height="61.4877" filterUnits="userSpaceOnUse" color-interpolation-filters="sRGB">
<feFlood flood-opacity="0" result="BackgroundImageFix"/>
<feBlend mode="normal" in="SourceGraphic" in2="BackgroundImageFix" result="shape"/>
<feTurbulence type="fractalNoise" baseFrequency="0.5 0.5" numOctaves="3" seed="4734" />
<feDisplacementMap in="shape" scale="4" xChannelSelector="R" yChannelSelector="G" result="displacedImage" width="100%" height="100%" />
<feMerge result="effect1_texture_302_1102">
<feMergeNode in="displacedImage"/>
</feMerge>
</filter>
</defs>
</svg>
